/* XPM */
static char *_0a1f066a53a4d469fabd49f52b0ea61FKJAkPWGU4T8fJhL[] = {
/* columns rows colors chars-per-pixel */
"16 16 174 2 ",
"   c None",
".  c #101127",
"X  c #141326",
"o  c #1F1D21",
"O  c #191824",
"+  c #14172E",
"@  c #030732",
"#  c #040831",
"$  c #040835",
"%  c #070B35",
"&  c #050936",
"*  c #000339",
"=  c #00023D",
"-  c #00043D",
";  c #161630",
":  c #1C1B31",
">  c #252222",
",  c #252325",
"<  c #302F2E",
"1  c #3F3E2E",
"2  c #322F37",
"3  c #3E3534",
"4  c #3F3634",
"5  c #403C2B",
"6  c #484029",
"7  c #4A4229",
"8  c #4E4831",
"9  c #4E4339",
"0  c #4E4639",
"q  c #4F4A3A",
"w  c #534A30",
"e  c #534B30",
"r  c #564C31",
"t  c #564D31",
"y  c #504D35",
"u  c #584F33",
"i  c #51453B",
"p  c #534A3E",
"a  c #4F5039",
"s  c #5E5336",
"d  c #5F5638",
"f  c #645937",
"g  c #000441",
"h  c #000541",
"j  c #010640",
"k  c #000145",
"l  c #000244",
"z  c #040942",
"x  c #000448",
"c  c #000449",
"v  c #00044A",
"b  c #00064A",
"n  c #00044E",
"m  c #00044F",
"M  c #00054F",
"N  c #00074F",
"B  c #03094F",
"V  c #030A4F",
"C  c #050B4F",
"Z  c #1F1F4D",
"A  c #000350",
"S  c #000550",
"D  c #000650",
"F  c #000750",
"G  c #161953",
"H  c #1C1F50",
"J  c #29284B",
"K  c #2D2848",
"L  c #302D4A",
"P  c #3B3145",
"I  c #2B2B51",
"U  c #323152",
"Y  c #373651",
"T  c #353452",
"R  c #303157",
"E  c #393752",
"W  c #383753",
"Q  c #3C3D53",
"!  c #3E3A55",
"~  c #3F3B55",
"^  c #443840",
"/  c #403F53",
"(  c #4F4145",
")  c #4C424B",
"_  c #574744",
"`  c #504A47",
"'  c #534C44",
"]  c #5D4D45",
"[  c #544A4A",
"{  c #51494C",
"}  c #5A5440",
"|  c #595246",
" . c #5B5B41",
".. c #55554C",
"X. c #424057",
"o. c #424257",
"O. c #464354",
"+. c #474555",
"@. c #4A4751",
"#. c #4B4653",
"$. c #494654",
"%. c #4A4754",
"&. c #4A4755",
"*. c #494756",
"=. c #4D4A56",
"-. c #464258",
";. c #474258",
":. c #45405A",
">. c #43465B",
",. c #4A445A",
"<. c #4D4F5A",
"1. c #544F5C",
"2. c #565256",
"3. c #585253",
"4. c #595456",
"5. c #5E5755",
"6. c #545058",
"7. c #54525D",
"8. c #5D575E",
"9. c #5A5858",
"0. c #5D5A59",
"q. c #5D5A5B",
"w. c #625745",
"e. c #655744",
"r. c #635A53",
"t. c #625A54",
"y. c #70604A",
"u. c #77654A",
"i. c #74654F",
"p. c #73694C",
"a. c #6D6354",
"s. c #6F6657",
"d. c #6D6B52",
"f. c #67635A",
"g. c #69675E",
"h. c #69685F",
"j. c #776C55",
"k. c #7E7254",
"l. c #6D6860",
"z. c #796C62",
"x. c #727262",
"c. c #897B56",
"v. c #877D59",
"b. c #897963",
"n. c #907E65",
"m. c #947D64",
"M. c #967F65",
"N. c #E2BE3B",
"B. c #928154",
"V. c #938355",
"C. c #9E8B54",
"Z. c #9C915D",
"A. c #A28F54",
"S. c #A08F57",
"D. c #A3985F",
"F. c #A99858",
"G. c #AB9F5F",
"H. c #B49E55",
"J. c #B7A055",
"K. c #BDAA5A",
"L. c #838265",
"P. c #888566",
"I. c #9F9862",
"U. c #9F9A6A",
"Y. c #A78C67",
"T. c #AA8E68",
"R. c #AAA364",
"E. c #A5A06C",
"W. c #A8A769",
"Q. c #BEAF60",
"!. c #BCB96D",
"~. c #CCB257",
"^. c #F6E164",
"/. c #F0E477",
/* pixels */
"            !.R.G.K.            ",
"        U.x.g.f.0.6.s.C.        ",
"      l.q.d. .y 8 d p.4.j.      ",
"    8.*.} < 2 z j $ , f Y s.    ",
"  n.X.p % w.N.L A F x . s / B.  ",
"  ,.{ : n J e.Q 9.B F x > ` 5.  ",
"T.-.i j F n F L.Q.I n F # u W J.",
"M.~ 4 x n F R E.v.k.V F - 7 *.A.",
"m.~ 4 v n F z./.^.~.H F = 7 T C.",
"Y.-.9 j B n G h.D.U C V @ r *.H.",
"  / { ; F Z y.i.t.u.) n o | #.  ",
"  b./ 0 % K ] ( P _ ^ X r E B.  ",
"    7.1.q + = l l * O e @.t.    ",
"      1.X...a 1 5 e ' O.3.      ",
"        P.>.<.0.2.+.*.c.        ",
"            W.I.Z.F.            "
};
