/* XPM */
static char *a902ca576cb44d25809fbedc61eb95afrsn5dWbeSbDGfHaI[] = {
/* columns rows colors chars-per-pixel */
"64 64 224 2 ",
"   c None",
".  c #000001",
"X  c #0C0A05",
"o  c #00010C",
"O  c #080704",
"+  c #141209",
"@  c #19160B",
"#  c #181509",
"$  c #000213",
"%  c #00021B",
"&  c #120F08",
"*  c #292613",
"=  c #3C341B",
"-  c #3A3517",
";  c #302A11",
":  c #000324",
">  c #00042C",
",  c #000533",
"<  c #00053C",
"1  c #433B1E",
"2  c #443A1A",
"3  c #4B3D2A",
"4  c #574C1E",
"5  c #494723",
"6  c #554B28",
"7  c #595124",
"8  c #635623",
"9  c #7E5E33",
"0  c #745B3A",
"q  c #655333",
"w  c #77692B",
"e  c #6F6734",
"r  c #000644",
"t  c #00064F",
"y  c #030A4F",
"u  c #090E4F",
"i  c #0D124F",
"p  c #13164E",
"a  c #161A4E",
"s  c #000750",
"d  c #050B50",
"f  c #090F50",
"g  c #0D1251",
"h  c #121651",
"j  c #151A52",
"k  c #1A1E52",
"l  c #1E2152",
"z  c #24254E",
"x  c #39354D",
"c  c #38364F",
"v  c #222452",
"b  c #262953",
"n  c #2A2C53",
"m  c #302F52",
"M  c #2F3255",
"N  c #343354",
"B  c #3B3B53",
"V  c #3B3D59",
"C  c #383755",
"Z  c #302F4E",
"A  c #443B46",
"S  c #433E54",
"D  c #433D58",
"F  c #3F4259",
"G  c #48434C",
"H  c #554846",
"J  c #434254",
"K  c #4A4551",
"L  c #4D4A55",
"P  c #454459",
"I  c #4B4B5A",
"U  c #4A4659",
"Y  c #534D52",
"T  c #534A5B",
"R  c #565254",
"E  c #5B5553",
"W  c #54545C",
"Q  c #5B565C",
"!  c #5C5A5C",
"~  c #5F5A55",
"^  c #4F525B",
"/  c #655744",
"(  c #645C54",
")  c #695F52",
"_  c #675D5D",
"`  c #6D6353",
"'  c #64625C",
"]  c #6A655D",
"[  c #6C6B5D",
"{  c #716653",
"}  c #766B58",
"|  c #7B745A",
" . c #797259",
".. c #6B6761",
"X. c #766B61",
"o. c #737262",
"O. c #7B7B64",
"+. c #7C7762",
"@. c #86752F",
"#. c #826235",
"$. c #856B3B",
"%. c #847539",
"&. c #977C34",
"*. c #87744A",
"=. c #837554",
"-. c #8D7D54",
";. c #857959",
":. c #987E45",
">. c #8A7C65",
",. c #887562",
"<. c #998534",
"1. c #A78C39",
"2. c #B59438",
"3. c #A4913B",
"4. c #BAA13F",
"5. c #CB9B32",
"6. c #C59C35",
"7. c #CBA438",
"8. c #D2A336",
"9. c #DAB539",
"0. c #E6BD35",
"q. c #F7CB35",
"w. c #FED539",
"e. c #FFD93A",
"r. c #FCD136",
"t. c #E7C23A",
"y. c #938845",
"u. c #8D8259",
"i. c #928254",
"p. c #9B8B56",
"a. c #968B5C",
"s. c #948D4F",
"d. c #A68D4A",
"f. c #A59849",
"g. c #A18F56",
"h. c #A59256",
"j. c #A2955B",
"k. c #AA9857",
"l. c #B49C56",
"z. c #B49742",
"x. c #BAA345",
"c. c #BBA455",
"v. c #B9A659",
"b. c #BAB257",
"n. c #ACA254",
"m. c #8A8363",
"M. c #8D8A65",
"N. c #868465",
"B. c #938565",
"V. c #968C65",
"C. c #9B9665",
"Z. c #A79767",
"A. c #B4996A",
"S. c #A98D67",
"D. c #ABA86A",
"F. c #B5A76A",
"G. c #BBB267",
"H. c #BCBB71",
"J. c #C6A943",
"K. c #C9B148",
"L. c #DDB241",
"P. c #D3B849",
"I. c #C5AC57",
"U. c #CCB256",
"Y. c #CBB55A",
"T. c #C3B75B",
"R. c #D3B956",
"E. c #D4BA58",
"W. c #E6BB45",
"Q. c #C5A76C",
"!. c #C5B767",
"~. c #D6B668",
"^. c #DCBA70",
"/. c #CEAF6E",
"(. c #E3BE71",
"). c #E0B96F",
"_. c #D9C35A",
"`. c #DFC44F",
"'. c #E2C44D",
"]. c #F8D04F",
"[. c #EDCD54",
"{. c #E4C859",
"}. c #EED15A",
"|. c #EED357",
" X c #F3D356",
".X c #FEDD57",
"XX c #F3D55A",
"oX c #FEDE59",
"OX c #F8D758",
"+X c #F3CD50",
"@X c #FFE25B",
"#X c #D8C765",
"$X c #D7C673",
"%X c #DCD575",
"&X c #DCD975",
"*X c #CEC96C",
"=X c #EEC36E",
"-X c #E7CB6A",
";X c #EBDA66",
":X c #ECC471",
">X c #E8C974",
",X c #F1CB72",
"<X c #FDCF74",
"1X c #E5D776",
"2X c #F4D374",
"3X c #FED375",
"4X c #FEDB77",
"5X c #F3DC75",
"6X c #F2D667",
"7X c #DFE077",
"8X c #ECE36B",
"9X c #FFEA66",
"0X c #FDEC6C",
"qX c #F7E267",
"wX c #FFF26E",
"eX c #EAE472",
"rX c #EBE777",
"tX c #FEE378",
"yX c #FFEB7A",
"uX c #F5E677",
"iX c #FFF572",
"pX c #FFF47C",
"aX c #FFFC7C",
"sX c #FCF877",
/* pixels */
"                                                                                                                                ",
"                                                            wX0X0X9X                                                            ",
"                                                aXaXaXaXiXwX0X0X9X9X9X9X9X9X@X@X                                                ",
"                                          aXaXaXrX&XH.V.o.! W L I R _ | p.T.{.oX@X@X@X                                          ",
"                                    pXpXaXrXH.O.F l j j d M N j J v l l k f v Y a.E.oX@XoX                                      ",
"                                pXpXpX7XM.F j j I J X.| Q ..( ] m.F ' .. .p h N i j Y l.XX@X@X                                  ",
"                              yXpX&XO.l l F P ' N.} +.a.} Q L ;.[ J ! W C g X.L B L v y S k.OX@XoX                              ",
"                          yXyXuXC.M l I ^ N.J | M.n P J J W E N b l M I j k X.g ..P { N h g Y Y.@XoX                            ",
"                        yXyX$XW l N Q m.J u.l L F b ^ | C.n.b.!.!.b.j.u.~ c ! L ..B =. .[ L y a -. X@X                          ",
"                      yXyXF.b h o.W  .M.~ J b ' D.7XrX8X#Xb.n.f.f.z.b.`.|.XXR.i.' ~ W  .M.| R t y E {..XoX                      ",
"                    tXtXV.h s d ..F ` C W N.%XrX*Xy.5 * X O . . . . O # ; 8 3.'.}.v.) U I j.Z u h f B R.@XoX                    ",
"                  tXtXm.j h f s l } J o.%XeXf.1 X O . . . . . o o . . . . . . @ 8 J.XXv.R K t Q !.J t m U.oX.X                  ",
"                4XtX>.d T !.Y s t B G.uXf.- . . O o % > , r r r < < , > % o . . . X 7 P. X=.a ' ~.Y y t m R..X                  ",
"              4XtXS.h t W *XE d Q 1X#X6 O . o % , r y y s s y t s s s s s r , % o . . # @. Xl.Z v y t y t B {..X                ",
"              4X/.l s s d v f X.5Xl.* . o % < t y i y y s t t t s y y t s s s y , % . . . 4 '.R.c t t t t t E  XoX              ",
"            4X>XV s s s s s | 5Xy.& . o , r y G z.J.3.x t t y s y s t s s t t s s y , o . . - P.E.x t t d s y -..XoX            ",
"          4X4XX.t t t t t ] 5X:.O . % r t t G t.r.e.e.0.A s t t t y t t t t t s t y t r $ . . ; P.R.Z r ' M.l j I.@X            ",
"          4XQ.v I ~ y t U ,Xd.X . : r s t u 4.e.r.e.w.r.1.y t t t t s t y t t y t t t s r % . . - P.c.v Z.{.n t Y  X.X          ",
"        4X2XT g !.~.m v ~.I.@ . % t y t y a 9.e.w.r.r.r.7.a t t t s s t s t t t t t s s s r % . . 4 +X-.n Z i t y h.@X          ",
"        4XA.g d U ( u >.-X= o $ r s t t t i J.e.w.e.r.q.2.i t t y t y t t t t s t y s s s s r $ . . @.[.S s t y t B  X.X        ",
"      3X<XT s s t t D ,X9 . o r s t y t y t / q.r.r.q.0.E s s s t t t t s t t t t s t y s t s < o . # K.I.i s s t y k..X        ",
"      3X/.h s s t u A.Y.@ . > s s t t s t t f / 6.9.7./ y s s d ] ! t t t t y t t t t t t t y t : . . 4 ].E s s t t Y .X.X      ",
"      4X,.t s s t D ,Xe . $ r s t y t t y t s t p z p t t t s ..0X;XY t t t y t s t s t t t t s r $ . X 7.c.h M ' j a U..X      ",
"    <X:XN f v s d B.~.@ . , s y t t t t s t t t t t t t t t F rXiX9X_.n t s t t t y t t y s t t s , . . 7  XG | qXW t -.@X      ",
"    4XQ.k m.Y.Z l ^.:.. $ r s s t t y t s t t t s t t t s g H.aX0X9X9Xh.y t t t t s t t y s y t s r o . # `.i.x { v t K OXoX    ",
"    4X>.s ,.F.v T =X1 . : s s s s t t s y t t t y t t s s ! pXaXiX9X@XXXJ t t t y t t t t t s t s t : . . <.R.a s s t l W.oX    ",
"    <X_ t i h y >.~.+ . r t s t t t t t t t t t t t y t d D.aXaX;X;X9X@Xp.y t t s t y t t s t t s s < . . 4  Xx t t t u c.@X    ",
"  <X,XD t t t u Q.d.. o r t t t t s t y t s y t t t s t v 7XaXC.M M p.oXE.a t t t t t s t y t t t s r o . ; '.) t t s t p.oX    ",
"  3X(.v s s t a ).#.. % y y t t t y s y t t s t t t s s U yX*Xj t t v _.XXN s t t s y t y s t t t t t $ . & P.-.t t t s { .X    ",
"  <X^.j s s t m (.q . : s t t t t s t t s t t y y s s s ..pXH.d t t h Y.oXY s t t t t t t t t y y s t : . O 4.l.k ..I r E .X.X  ",
"  3X/.f a l y D =X3 . > s t t s t y s t t t t t t t d ! $XpXrX^ t t Q XXoXU.Y t t t t y t t t s s s t : . . 1.c.c ;XZ.i K OX.X  ",
"  3XQ.h B.Y.z D =X2 . > s t t t t t t t t y s t t t _ 2XyXpXaX1XC.j.}.@XoXoX XY t s t t t s t t y s s > . . <.U.l Y S t S OX.X  ",
"  <XQ.h +.F.v D =X= . > t t y y t t y t t t s t s l ^.tXyXpXaXaXwX9XoXoXoXoXoXU.j t t t t t t t t t s > . . <.U.i t s t S ]..X  ",
"  <XQ.f f h t D =X1 . , y t t y t t s t t y t t s U 2XtXtXyXaXaXiX9X9XoXoXoXoXXXx t t t t t t y s y s : . . <.U.i t t t S OX.X  ",
"  3X/.j t t t m :X6 . : t t t t y s s t s t t t t T ,X4XyXpXaXaXwX9X@XoXoX.XoX XB t t s s t t s t t s : . . 2.c.y s s t Y .X.X  ",
"  <X).l t t s v ).0 . % t t t t t t t t y t t s s v >X4X$XD.aXaXwX9X9XOXh.{.@XE.k t t t t t t t y s s % . X J.d.r s s t ) .X    ",
"  3X:Xm s s s i /.:.. $ t t t t t s y t t t t t s t ,.Q.N v &XaXiX9X@XY.j S U.( t s t t s t t t t s r $ . @ '. .C X.k t =.@X    ",
"  <X<XT s l k u S.I.X o r t t t t t t t s t t t s s f f t t o.aXiX0XoX( t t p y t t y t t t y s t s < o . 2 +XY ;.8XI t k..X    ",
"    3X,.g k.I.j { (.* . , t t t t t t s t t s t t t s s t t h o.D.n.{ g t t t t t t t t t y t t t s > . . w {.z n ` h a R..X    ",
"    3XS.j B.C.k N ,Xq . $ t t t s t t y t t t t t t s s t g V.R V C ..u.y t y t s y t t s t t y t r $ . O J.c.y t t t N [..X    ",
"    3X).v f f s i Q.l.O o < t t t y t y s t t t s s s s s f ~.;.Z.a.V.v.y t t t t t t t t t t t s , . . - [.` s t t t ` .X.X    ",
"    <X<XQ s s s t _ =X2 . % t t t t t t t t s t d f Y =.Y j B.E F.p.,.j.y z =.h.=.a t t s y t s t % . . &.{.v s t t u l..X      ",
"      4XS.d s s t k ^.d.. . < d s t y s s s t x *.d.+XOX+X=.f s +.{ h h l c.].].].z.p t t t s s , . . * '.-.g f y t m {..X      ",
"      4X(.m s s t t X.,X1 . $ r s t t t t s x J.W.W.W.W.W.L.:.A f y y Y z.9.L.L.L.W.A t t t s r o . . <.{.x u.V.g s =..X.X      ",
"        4X,.s k { J k /.c.+ . : t t t t y A 1.8.8.8.8.5.8.5.8.2.0 0 $.5.5.5.5.5.5.5.&.0 3 s t % . . 5 +X=.k l.G.l k E..X        ",
"        4X(.b C 6XC.d T 2X$.. . > t y t y q $.#.#.#.#.#.#.#.#.#.#.#.#.9 #.9 9 9 9 #.#.#.A s : . . @ J.U.a t v k t { .XoX        ",
"        3X4X>.j W M t d >.2X6 . O > t t t t f y y y y y y y y y y y y y t y y y t t t y t > . . O 1.[.J t t s r v E..X          ",
"          4X,XD t t t s j F.-X1 . . > t t t t t t t t t t t s t s s y t t t t t s t t t : O . O @. X) t t s s y -.@XoX          ",
"            4XF.j s s s s v /.$X1 o . % r y s s s s t t t s y t t t s s y t s s s s r $ . . O @.OX=.v j s t s K  X.X            ",
"            4X4X>.d s s g j b /.-X7 . . o > r s s s y t y s t t s t s s s s s s r : o . . & <. X-.l k.D.k t v U.oX              ",
"              4X2XQ s h j.k.l v F.5X .& . . $ > r t s s s s t t t y s s s t r : $ . . . ; x.XX} y i p.Z.h i k..X.X              ",
"                4X>XP f C.D.j s h B.qXb.5 . . . o % , < r r t t t r r < > % o . . . & w '._.Y y y y h i u -..XoX                ",
"                  tX$XD g j d s t d W $XrXf.1 O . . . . o o $ $ $ $ o . . . . . + 8 K.XXg.n t t y y t y =.OXoX                  ",
"                  tXtX$XP s s s t t f k O.&XrXD.e * O O . . . . . . . . . + - @.P.XXv.L v { M y t t y -.OXoX                    ",
"                    tXyX1X! s t t v g.Q s v o.*XrXeXT.s.e 5 5 - - 5 7 w 3.P.XX{.h.K g t L qX>.s t a p..X@X                      ",
"                        yX5X>.j t B ;XN.s s s g F o.D.&XeX8X8X8XXX;X;X{.I.p.E b d t t t l _ M s N c.@X.X                        ",
"                          yXyXH.F g M l s s s s k v h h b F L I ^ J B b i y K  .h t y t t s h ` {.@XoX                          ",
"                            yXyX5XM.b s s s s f i.-XN t n ] J P E c ' n t y g.;XV t t t u K v.oX.X                              ",
"                                pXpX%XN.M s s s ' C.n s I P { u.;.>.V t s y M W y t g L k.XX@XoX                                ",
"                                  pXpXaXrXD.! l g y t s I ..) [ C M [ B t s s g N } I.OXoXoX                                    ",
"                                      aXaXaXaX7XG.O.^ M Z c l l g i n C c ( i.I.}.@X@XoX                                        ",
"                                            aXaXaXaXsXeX%X*XG.G.G.T.#X{.6X@X@X@X@X@X                                            ",
"                                                    sXiXiXiXwXwX9X0X9X9X9X@X                                                    ",
"                                                                                                                                "
};
