/* XPM */
static char *d739e771e4444c18c901b97bffa39865gUuFlPLHij4nE7sL[] = {
/* columns rows colors chars-per-pixel */
"32 32 197 2 ",
"   c None",
".  c #0D0C06",
"X  c #02020C",
"o  c #0E0D0D",
"O  c #070605",
"+  c #131107",
"@  c #14130C",
"#  c #181508",
"$  c #1A180C",
"%  c #020213",
"&  c #00011B",
"*  c #110F11",
"=  c #161412",
"-  c #231E13",
";  c #27220C",
":  c #2B250C",
">  c #342D0F",
",  c #292814",
"<  c #352D15",
"1  c #36321A",
"2  c #373012",
"3  c #010124",
"4  c #00012D",
"5  c #000334",
"6  c #00053B",
"7  c #413915",
"8  c #44381F",
"9  c #5A4E1E",
"0  c #464321",
"q  c #5E5D2D",
"w  c #665B2F",
"e  c #685B24",
"r  c #67503C",
"t  c #72583A",
"y  c #7B6338",
"u  c #76743A",
"i  c #000543",
"p  c #00064F",
"a  c #03094F",
"s  c #0A0E4D",
"d  c #0D114E",
"f  c #1A1B49",
"g  c #000750",
"h  c #050C50",
"j  c #090F51",
"k  c #0C1250",
"l  c #141A52",
"z  c #1A1D52",
"x  c #131750",
"c  c #221E46",
"v  c #1E2254",
"b  c #2A274A",
"n  c #22214A",
"m  c #3A354D",
"M  c #232451",
"N  c #282755",
"B  c #272A54",
"V  c #2B2C53",
"C  c #312F50",
"Z  c #2E3056",
"A  c #333454",
"S  c #3B3A53",
"D  c #363658",
"F  c #393958",
"G  c #443E49",
"H  c #443F56",
"J  c #54494C",
"K  c #444255",
"L  c #4A4755",
"P  c #4E4953",
"I  c #444358",
"U  c #494259",
"Y  c #4D4C5A",
"T  c #544C5B",
"R  c #544E52",
"E  c #565155",
"W  c #5A5453",
"Q  c #54525A",
"!  c #5C575B",
"~  c #5C5A5A",
"^  c #5E5A57",
"/  c #655845",
"(  c #675D53",
")  c #625D5A",
"_  c #685F59",
"`  c #706144",
"'  c #6D6455",
"]  c #65615C",
"[  c #69645A",
"{  c #6E695A",
"}  c #7A6E52",
"|  c #736E5B",
" . c #726753",
".. c #7B725A",
"X. c #6A6C61",
"o. c #696561",
"O. c #736661",
"+. c #7A6861",
"@. c #787663",
"#. c #806F2E",
"$. c #83722F",
"%. c #837838",
"&. c #9A7636",
"*. c #91713A",
"=. c #977C37",
"-. c #A07D39",
";. c #866E41",
":. c #867441",
">. c #877C43",
",. c #8C784A",
"<. c #957C48",
"1. c #826F5D",
"2. c #867956",
"3. c #8B7D53",
"4. c #827B5D",
"5. c #877559",
"6. c #987E54",
"7. c #806D62",
"8. c #827562",
"9. c #877A63",
"0. c #967E65",
"q. c #8F813F",
"w. c #95833D",
"e. c #99853C",
"r. c #A48039",
"t. c #B1923A",
"y. c #D8B53C",
"u. c #FFD638",
"i. c #EAC43A",
"p. c #958343",
"a. c #9E8C44",
"s. c #97844C",
"d. c #99894C",
"f. c #978C4A",
"g. c #96914E",
"h. c #8D825C",
"j. c #948453",
"k. c #9D8B55",
"l. c #98885A",
"z. c #9D9655",
"x. c #98955B",
"c. c #8C8746",
"v. c #A38F45",
"b. c #AB9241",
"n. c #A69254",
"m. c #A79B5E",
"M. c #B39D56",
"N. c #B69749",
"B. c #B7A359",
"V. c #BAA254",
"C. c #878762",
"Z. c #998665",
"A. c #9A9663",
"S. c #A39D6B",
"D. c #B99B6A",
"F. c #A8A46A",
"G. c #BAA86D",
"H. c #BCBA6E",
"J. c #BFBD70",
"K. c #C4A248",
"L. c #C3AD59",
"P. c #C3AA55",
"I. c #C9B259",
"U. c #D6BB57",
"Y. c #D8BD58",
"T. c #E6BE49",
"R. c #C5A66D",
"E. c #D4BD71",
"W. c #DABB71",
"Q. c #E3BD71",
"!. c #DBC25A",
"~. c #E1C457",
"^. c #EDCE57",
"/. c #EACD59",
"(. c #E3C85A",
"). c #EED15A",
"_. c #F3D457",
"`. c #FBDB5B",
"'. c #FBDA57",
"]. c #FFE25B",
"[. c #C6C072",
"{. c #DCCC74",
"}. c #DBD874",
"|. c #E6C773",
" X c #ECC873",
".X c #E2DD76",
"XX c #FED375",
"oX c #E9D969",
"OX c #FFEE6B",
"+X c #FFEB64",
"@X c #FFF66C",
"#X c #E3E278",
"$X c #F2E278",
"%X c #FBEF7B",
"&X c #FBF47B",
"*X c #FFFB7C",
"=X c #FFF671",
/* pixels */
"                                                                ",
"                      &X}.J.F.A.m.m.I.(.`.                      ",
"                  .XF.X.Q Y I L L I F K  .M.).                  ",
"              $XS.Q Y Q ) ] ) ] Q Y Z I K S E B.`.              ",
"            {.o.L ] ~ ~ @.A.z.f.f.f.j.2.] [ ] B } ^.            ",
"          E.Y s I { A.g.q < $ o o $ 2 e a.j.[ D L W (.          ",
"        W.H ] A ] z.0 O 3 5 i i i 6 4 % . 9 a.' L g W ^.        ",
"       XT p z @.>.= 3 f / K h p g g g a 5 % ; e.E g k } `.      ",
"      Z.A j _ :.o 5 j b.u.i.G p p a p a g i 3 # e.E | V M.      ",
"    W.D [ T 6.* 6 g x y.u.u./ p p g p p g p p & ; v.H p L ^.    ",
"    9.g k l.1 4 g g h ` y.t.n h D a p g g a g i X 9 } p s M.    ",
"   XU j H :.% p p p p p f d g X.oX^ p g p p p g 5 . e.E ! ( '.  ",
"  R.T ) 1.8 5 p p g p p g p B #X@X!.M g p a p a p % e } M V ~.  ",
"  Z.j z 6.= i g a p a g p p X.}.h.!.( p g p g p p 3 > ,.g k P.  ",
"  7.g N ,.% h g p p g p p a F.@.p 2.k.g a p p p p 5 # p.F M n.  ",
"XX+.P H ;.& p g g p a p g O..XE.~ L.).( g p a a g 5 . w.[ S j.  ",
"XXO.U H :.& p p p g g p N |.&X*XOX`.].~.M p p p g 6 . w.z p j.  ",
"XX+.g N ,.% p p p p p p N |.{.&XOX`.!.~.M p p p p 5 + p.x p n.  ",
"  0.s N 6.* i p p g p g j T A H.OXB.A P p g p h p 3 : s.| V V.  ",
"  D.! ! 5.< 5 p p p p g g p j ] 4.( p p p g p g p % 9  .M A Y.  ",
"  Q.F h T y & p g p g p k S S | C.5.N J C g g g 5 . =.C p R '.  ",
"  XXO.p z l.- 5 g p a J N.T.K.J K m <.T.K.b h i % 1 d.Y k k.    ",
"    R.D { ! :.X i g b *.r.-.=.*.r #.&.&.&.t c 3 + e.H E K ~.    ",
"    XX8.B j 9.w % 6 a s s s s d s s j s j s 3 O $.( p p k.      ",
"      W.D p N Z.w X 4 p a p h a g g g p 6 % . #.3.~ d W _.      ",
"        G.A | V 9.>., % 4 6 i a p i 5 & X > w. .x I K Y.        ",
"          G.A p j ] A.u 1 @ X X X O + 7 $.d.[ l p C I.          ",
"            G.D v { v ~ C.z.c.u u p.d.3.L k ! D P U.            ",
"              {.@.F g a ~ A Y ) ] L z | l p M 3./.              ",
"                %X[.@.D Y l I ) E A a A K 2.Y.].                ",
"                    *X#XH.A.C...| h.k.L./.                      ",
"                            =XOXOX+X                            "
};
